<?xml version="1.0" encoding="UTF-8" standalone="no"?>
<!-- Created with Inkscape (http://www.inkscape.org/) -->

<svg
   width="120"
   height="50"
   id="svg2"
   sodipodi:version="0.32"
   inkscape:version="1.3.2 (091e20ef0f, 2023-11-25, custom)"
   version="1.0"
   sodipodi:docname="xor-gate.svg"
   inkscape:output_extension="org.inkscape.output.svg.inkscape"
   xmlns:inkscape="http://www.inkscape.org/namespaces/inkscape"
   xmlns:sodipodi="http://sodipodi.sourceforge.net/DTD/sodipodi-0.dtd"
   xmlns="http://www.w3.org/2000/svg"
   xmlns:svg="http://www.w3.org/2000/svg"
   xmlns:rdf="http://www.w3.org/1999/02/22-rdf-syntax-ns#"
   xmlns:cc="http://creativecommons.org/ns#"
   xmlns:dc="http://purl.org/dc/elements/1.1/">
  <defs
     id="defs4">
    <inkscape:perspective
       sodipodi:type="inkscape:persp3d"
       inkscape:vp_x="0 : 15 : 1"
       inkscape:vp_y="0 : 1000 : 0"
       inkscape:vp_z="50 : 15 : 1"
       inkscape:persp3d-origin="25 : 10 : 1"
       id="perspective2714" />
    <inkscape:perspective
       sodipodi:type="inkscape:persp3d"
       inkscape:vp_x="0 : 0.5 : 1"
       inkscape:vp_y="0 : 1000 : 0"
       inkscape:vp_z="1 : 0.5 : 1"
       inkscape:persp3d-origin="0.5 : 0.33333333 : 1"
       id="perspective2806" />
    <inkscape:perspective
       id="perspective2819"
       inkscape:persp3d-origin="372.04724 : 350.78739 : 1"
       inkscape:vp_z="744.09448 : 526.18109 : 1"
       inkscape:vp_y="0 : 1000 : 0"
       inkscape:vp_x="0 : 526.18109 : 1"
       sodipodi:type="inkscape:persp3d" />
    <inkscape:perspective
       id="perspective2777"
       inkscape:persp3d-origin="75 : 40 : 1"
       inkscape:vp_z="150 : 60 : 1"
       inkscape:vp_y="0 : 1000 : 0"
       inkscape:vp_x="0 : 60 : 1"
       sodipodi:type="inkscape:persp3d" />
    <inkscape:perspective
       id="perspective3275"
       inkscape:persp3d-origin="50 : 33.333333 : 1"
       inkscape:vp_z="100 : 50 : 1"
       inkscape:vp_y="0 : 1000 : 0"
       inkscape:vp_x="0 : 50 : 1"
       sodipodi:type="inkscape:persp3d" />
    <inkscape:perspective
       id="perspective5533"
       inkscape:persp3d-origin="32 : 21.333333 : 1"
       inkscape:vp_z="64 : 32 : 1"
       inkscape:vp_y="0 : 1000 : 0"
       inkscape:vp_x="0 : 32 : 1"
       sodipodi:type="inkscape:persp3d" />
    <inkscape:perspective
       id="perspective2557"
       inkscape:persp3d-origin="25 : 16.666667 : 1"
       inkscape:vp_z="50 : 25 : 1"
       inkscape:vp_y="0 : 1000 : 0"
       inkscape:vp_x="0 : 25 : 1"
       sodipodi:type="inkscape:persp3d" />
  </defs>
  <sodipodi:namedview
     id="base"
     pagecolor="#ffffff"
     bordercolor="#666666"
     borderopacity="1.0"
     inkscape:pageopacity="0.0"
     inkscape:pageshadow="2"
     inkscape:zoom="2.9137695"
     inkscape:cx="44.444148"
     inkscape:cy="33.118612"
     inkscape:document-units="px"
     inkscape:current-layer="layer1"
     showgrid="true"
     inkscape:grid-bbox="true"
     inkscape:grid-points="true"
     gridtolerance="10000"
     inkscape:window-width="1366"
     inkscape:window-height="732"
     inkscape:window-x="0"
     inkscape:window-y="0"
     inkscape:snap-bbox="true"
     inkscape:showpageshadow="2"
     inkscape:pagecheckerboard="0"
     inkscape:deskcolor="#d1d1d1"
     inkscape:window-maximized="1" />
  <metadata
     id="metadata7">
    <rdf:RDF>
      <cc:Work
         rdf:about="">
        <dc:format>image/svg+xml</dc:format>
        <dc:type
           rdf:resource="http://purl.org/dc/dcmitype/StillImage" />
      </cc:Work>
    </rdf:RDF>
  </metadata>
  <g
     inkscape:label="Layer 1"
     inkscape:groupmode="layer"
     id="layer1">
    <path
       style="fill:none;stroke:#cdd6f4;stroke-width:2;stroke-linecap:butt;stroke-linejoin:miter;stroke-opacity:1"
       d="M 80.03125,25 C 100.03125,25 105.03125,25 105.03125,25"
       id="path3059"
       sodipodi:nodetypes="cc" />
    <path
       style="fill:none;stroke:#cdd6f4;stroke-width:1.99999988;stroke-linecap:butt;stroke-linejoin:miter;stroke-opacity:1"
       d="M 40.416967,15 L 15.03125,15"
       id="path3061" />
    <path
       style="fill:none;stroke:#cdd6f4;stroke-width:1.99999976;stroke-linecap:butt;stroke-linejoin:miter;stroke-opacity:1"
       d="M 41.393341,35 L 15.03125,35"
       id="path3944" />
    <path
       id="path3516"
       style="fill:#cdd6f4;fill-opacity:1;fill-rule:evenodd;stroke:none;stroke-width:3;stroke-linecap:butt;stroke-linejoin:miter;stroke-opacity:1"
       d="m 34.28125,42.000005 c -1.597374,2.6444 -2.25,3 -2.25,3 H 28.375 l 2,-2.4375 c 0,0 5.65625,-7.000054 5.65625,-17.562505 C 36.03125,14.437549 30.375,7.4375 30.375,7.4375 L 28.375,5 h 3.65625 c 0.78125,0.9375 1.421875,1.65625 2.21875,3 1.872719,3.099815 4.78125,9.026646 4.78125,17 0,7.95065 -2.896697,13.879425 -4.75,17.000005 z"
       sodipodi:nodetypes="ccccsccccsc" />
    <text
       xml:space="preserve"
       style="font-style:normal;font-variant:normal;font-weight:normal;font-stretch:normal;font-size:14.6667px;line-height:0%;font-family:'DejaVu Sans';-inkscape-font-specification:'DejaVu Sans, Normal';font-variant-ligatures:normal;font-variant-caps:normal;font-variant-numeric:normal;font-variant-east-asian:normal;text-align:end;writing-mode:lr-tb;text-anchor:end;fill:#cdd6f4;fill-opacity:1;stroke:none;stroke-width:1px;stroke-linecap:butt;stroke-linejoin:miter;stroke-opacity:1"
       x="11.460938"
       y="20.346001"
       id="text6866"><tspan
         sodipodi:role="line"
         id="tspan6868"
         x="11.460938"
         y="20.346001"
         style="font-style:normal;font-variant:normal;font-weight:normal;font-stretch:normal;font-size:14.6667px;line-height:1;font-family:'DejaVu Sans';-inkscape-font-specification:'DejaVu Sans, Normal';font-variant-ligatures:normal;font-variant-caps:normal;font-variant-numeric:normal;font-variant-east-asian:normal;fill:#cdd6f4;fill-opacity:1">A</tspan></text>
    <text
       xml:space="preserve"
       style="font-style:normal;font-variant:normal;font-weight:normal;font-stretch:normal;font-size:14.6667px;line-height:0%;font-family:'DejaVu Sans';-inkscape-font-specification:'DejaVu Sans, Normal';font-variant-ligatures:normal;font-variant-caps:normal;font-variant-numeric:normal;font-variant-east-asian:normal;text-align:end;writing-mode:lr-tb;text-anchor:end;fill:#cdd6f4;fill-opacity:1;stroke:none;stroke-width:1px;stroke-linecap:butt;stroke-linejoin:miter;stroke-opacity:1"
       x="11.488281"
       y="40.346001"
       id="text6870"><tspan
         sodipodi:role="line"
         id="tspan6872"
         x="11.488281"
         y="40.346001"
         style="font-style:normal;font-variant:normal;font-weight:normal;font-stretch:normal;font-size:14.6667px;line-height:1;font-family:'DejaVu Sans';-inkscape-font-specification:'DejaVu Sans, Normal';font-variant-ligatures:normal;font-variant-caps:normal;font-variant-numeric:normal;font-variant-east-asian:normal;fill:#cdd6f4;fill-opacity:1">B</tspan></text>
    <text
       xml:space="preserve"
       style="font-style:normal;font-variant:normal;font-weight:normal;font-stretch:normal;font-size:14.6667px;line-height:0%;font-family:'DejaVu Sans';-inkscape-font-specification:'DejaVu Sans, Normal';font-variant-ligatures:normal;font-variant-caps:normal;font-variant-numeric:normal;font-variant-east-asian:normal;text-align:end;writing-mode:lr-tb;text-anchor:end;fill:#cdd6f4;fill-opacity:1;stroke:none;stroke-width:1px;stroke-linecap:butt;stroke-linejoin:miter;stroke-opacity:1"
       x="118.41016"
       y="30.265345"
       id="text6878"><tspan
         sodipodi:role="line"
         id="tspan1"
         x="118.41016"
         y="30.265345">C</tspan></text>
    <path
       id="path2"
       style="fill:#585b70;fill-rule:evenodd;stroke:none;fill-opacity:1"
       d="m 38.378906,7.0761719 0.826172,1.3945312 c 4.390311,7.1799449 5.796685,16.0938269 3.689453,24.2656249 -4.84e-4,0.0019 4.85e-4,0.004 0,0.0059 -0.883377,3.676077 -2.55895,7.045764 -4.488281,10.177735 5.091351,-0.0084 10.172614,0.04932 15.232422,-0.03906 6.729231,-0.235959 13.374981,-2.826734 18.396484,-7.308593 a 1.0761199,1.0761199 0 0 1 0.0098,-0.0078 C 75.409648,32.626369 78.067277,28.927424 80.292969,24.986328 77.311473,19.674142 73.409715,14.814694 68.3125,11.59375 a 1.0761199,1.0761199 0 0 1 -0.01367,-0.0078 C 63.509328,8.4661083 57.717495,7.0174779 51.976562,7.078125 a 1.0761199,1.0761199 0 0 1 -0.01172,0 c -4.528221,-0.00278 -9.056968,-0.0017 -13.585938,-0.00195 z m 0.01172,35.7968751 c -0.0063,0.02653 -0.01681,0.02244 -0.02344,0.04687 0.0013,-2e-6 0.0026,2e-6 0.0039,0 z" />
    <path
       style="fill:#cdd6f4;fill-opacity:1;fill-rule:evenodd;stroke:none;stroke-width:3;stroke-linecap:butt;stroke-linejoin:miter;stroke-opacity:1"
       d="m 34.125,5 2,2.4375 c 0,0 5.65625,7.000049 5.65625,17.5625 0,10.562451 -5.65625,17.5625 -5.65625,17.5625 l -2,2.4375 h 3.15625 14 c 2.408076,10e-7 7.689699,0.02451 13.625,-2.40625 5.935301,-2.430764 12.536536,-7.343266 17.6875,-16.875 L 81.28125,25 82.59375,24.28125 C 72.290637,5.21559 56.037824,5 51.28125,5 h -14 z M 40,8 H 51.28125 C 55.965423,8 69.5681,7.869793 79.25,25 74.483214,33.429075 68.728719,37.68391 63.53125,39.8125 58.170589,42.007924 53.689325,42.000001 51.28125,42 h -11.25 c 1.873588,-3.108434 4.75,-9.04935 4.75,-17 0,-7.973354 -2.908531,-13.900185 -4.78125,-17 z"
       id="path4973"
       sodipodi:nodetypes="ccsccccscccccccccsccsc" />
  </g>
</svg>
